<svg width="1600" height="1040" viewBox="0 0 1600 1040" fill="none" xmlns="http://www.w3.org/2000/svg">
  <rect width="1600" height="1040" fill="#183126"/>
  <rect x="72" y="72" width="1456" height="896" rx="52" fill="#214233"/>
  <circle cx="1278" cy="282" r="192" fill="#8F1F2E" fill-opacity="0.92"/>
  <circle cx="1194" cy="342" r="108" fill="#C7982C" fill-opacity="0.88"/>
  <rect x="166" y="184" width="560" height="672" rx="32" fill="#F0EBE3"/>
  <rect x="214" y="252" width="292" height="26" rx="13" fill="#214233" fill-opacity="0.18"/>
  <rect x="214" y="308" width="404" height="58" rx="20" fill="#214233"/>
  <rect x="214" y="396" width="454" height="18" rx="9" fill="#214233" fill-opacity="0.24"/>
  <rect x="214" y="436" width="410" height="18" rx="9" fill="#214233" fill-opacity="0.18"/>
  <rect x="214" y="476" width="360" height="18" rx="9" fill="#214233" fill-opacity="0.18"/>
  <rect x="214" y="546" width="466" height="106" rx="28" fill="#D9D1C7"/>
  <rect x="248" y="580" width="248" height="16" rx="8" fill="#214233" fill-opacity="0.26"/>
  <rect x="248" y="616" width="382" height="14" rx="7" fill="#214233" fill-opacity="0.18"/>
  <rect x="248" y="720" width="202" height="48" rx="24" fill="#8F1F2E"/>
  <rect x="812" y="234" width="470" height="140" rx="34" fill="#F0EBE3"/>
  <rect x="854" y="278" width="168" height="16" rx="8" fill="#214233" fill-opacity="0.24"/>
  <rect x="854" y="316" width="264" height="18" rx="9" fill="#214233"/>
  <rect x="812" y="418" width="520" height="156" rx="34" fill="#2B5442"/>
  <rect x="854" y="466" width="214" height="16" rx="8" fill="#F0EBE3" fill-opacity="0.52"/>
  <rect x="854" y="504" width="330" height="18" rx="9" fill="#F0EBE3"/>
  <rect x="812" y="618" width="620" height="164" rx="34" fill="#F0EBE3"/>
  <rect x="854" y="668" width="250" height="16" rx="8" fill="#214233" fill-opacity="0.24"/>
  <rect x="854" y="706" width="432" height="18" rx="9" fill="#214233" fill-opacity="0.18"/>
  <rect x="1312" y="666" width="76" height="76" rx="38" fill="#C7982C"/>
  <path d="M1348 687L1358.57 708.43L1382 711.84L1365 728.41L1369.01 751.66L1348 740.61L1326.99 751.66L1331 728.41L1314 711.84L1337.43 708.43L1348 687Z" fill="#8F1F2E"/>
</svg>
