<svg width="1600" height="900" viewBox="0 0 1600 900" fill="none" xmlns="http://www.w3.org/2000/svg">
  <rect width="1600" height="900" fill="#061B0E"/>
  <rect width="1600" height="900" fill="url(#bg)"/>
  <circle cx="1288" cy="144" r="224" fill="#AF2B3E" fill-opacity="0.14"/>
  <circle cx="286" cy="742" r="252" fill="#D4A017" fill-opacity="0.12"/>
  <rect x="358" y="222" width="884" height="470" rx="36" fill="#F9F6F1" fill-opacity="0.08" stroke="#F9F6F1" stroke-opacity="0.16" stroke-width="4"/>
  <rect x="484" y="302" width="632" height="250" rx="24" stroke="#F5D06B" stroke-width="14"/>
  <path d="M602 656C664 608 730 584 800 584C870 584 936 608 998 656" stroke="#F9F6F1" stroke-width="14" stroke-linecap="round"/>
  <circle cx="630" cy="370" r="18" fill="#F9F6F1"/>
  <circle cx="970" cy="370" r="18" fill="#F9F6F1"/>
  <path d="M704 408H894" stroke="#F9F6F1" stroke-width="14" stroke-linecap="round"/>
  <path d="M704 452H894" stroke="#F9F6F1" stroke-opacity="0.72" stroke-width="10" stroke-linecap="round"/>
  <path d="M536 622H1064" stroke="#F5D06B" stroke-width="12" stroke-linecap="round"/>
  <path d="M550 268L592 222L634 268" stroke="#F9F6F1" stroke-width="12" stroke-linecap="round" stroke-linejoin="round"/>
  <path d="M966 268L1008 222L1050 268" stroke="#F9F6F1" stroke-width="12" stroke-linecap="round" stroke-linejoin="round"/>
  <defs>
    <linearGradient id="bg" x1="176" y1="54" x2="1390" y2="832" gradientUnits="userSpaceOnUse">
      <stop stop-color="#203828"/>
      <stop offset="1" stop-color="#2D0A10"/>
    </linearGradient>
  </defs>
</svg>
