<svg width="1600" height="1100" viewBox="0 0 1600 1100" fill="none" xmlns="http://www.w3.org/2000/svg">
  <rect width="1600" height="1100" fill="#10251A"/>
  <rect width="1600" height="1100" fill="url(#bg)"/>
  <circle cx="1285" cy="186" r="232" fill="#D4A017" fill-opacity="0.18"/>
  <circle cx="266" cy="870" r="300" fill="#8F1F2E" fill-opacity="0.18"/>
  <path d="M126 895C126 844.19 167.19 803 218 803H916C966.81 803 1008 844.19 1008 895V914H126V895Z" fill="#E9E2D8" fill-opacity="0.92"/>
  <rect x="194" y="352" width="548" height="451" rx="32" fill="#7C4A31"/>
  <rect x="230" y="388" width="476" height="379" rx="20" fill="#B4815E"/>
  <rect x="262" y="420" width="172" height="140" rx="12" fill="#EBDDC9"/>
  <rect x="462" y="420" width="212" height="140" rx="12" fill="#E6D2B7"/>
  <rect x="262" y="588" width="412" height="36" rx="18" fill="#6A3B27"/>
  <rect x="262" y="644" width="306" height="28" rx="14" fill="#6A3B27" fill-opacity="0.78"/>
  <path d="M958 381C958 330.19 999.19 289 1050 289H1276C1326.81 289 1368 330.19 1368 381V660C1368 710.81 1326.81 752 1276 752H1050C999.19 752 958 710.81 958 660V381Z" fill="#F1E8DC"/>
  <rect x="998" y="329" width="330" height="161" rx="26" fill="#C16A2F"/>
  <circle cx="1076" cy="409" r="38" fill="#F4D7A5"/>
  <circle cx="1149" cy="408" r="28" fill="#7FBA62"/>
  <circle cx="1211" cy="398" r="32" fill="#B43734"/>
  <circle cx="1271" cy="429" r="22" fill="#F0B84B"/>
  <rect x="998" y="525" width="330" height="32" rx="16" fill="#D3B28F"/>
  <rect x="998" y="576" width="264" height="24" rx="12" fill="#D3B28F" fill-opacity="0.78"/>
  <path d="M1047 219C1047 183.101 1076.1 154 1112 154H1214C1249.9 154 1279 183.101 1279 219V242H1047V219Z" fill="#F0E7DA"/>
  <rect x="1084" y="110" width="159" height="64" rx="24" fill="#8F1F2E"/>
  <rect x="1117" y="128" width="94" height="10" rx="5" fill="#F5E6CC"/>
  <rect x="1100" y="146" width="128" height="10" rx="5" fill="#F5E6CC" fill-opacity="0.84"/>
  <rect x="116" y="914" width="1370" height="54" rx="27" fill="#D8CABB" fill-opacity="0.74"/>
  <defs>
    <linearGradient id="bg" x1="244" y1="66" x2="1344" y2="1038" gradientUnits="userSpaceOnUse">
      <stop stop-color="#173626"/>
      <stop offset="1" stop-color="#0D1E16"/>
    </linearGradient>
  </defs>
</svg>
